<mxfile host="app.diagrams.net" modified="2021-10-04T05:27:25.299Z" agent="5.0 (Windows NT 10.0; Win64; x64) AppleWebKit/537.36 (KHTML, like Gecko) Chrome/94.0.4606.61 Safari/537.36" etag="XGUFwkJpWs-Ard4vYUcx" version="15.4.1" type="github">
  <diagram id="kgpKYQtTHZ0yAKxKKP6v" name="Page-1">
    <mxGraphModel dx="1483" dy="827" grid="1" gridSize="10" guides="1" tooltips="1" connect="1" arrows="1" fold="1" page="1" pageScale="1" pageWidth="583" pageHeight="827" math="0" shadow="0">
      <root>
        <mxCell id="0" />
        <mxCell id="1" parent="0" />
        <mxCell id="3nuBFxr9cyL0pnOWT2aG-1" value="고객" style="shape=umlLifeline;perimeter=lifelinePerimeter;container=1;collapsible=0;recursiveResize=0;rounded=0;shadow=0;strokeWidth=1;" parent="1" vertex="1">
          <mxGeometry x="40" y="80" width="100" height="600" as="geometry" />
        </mxCell>
        <mxCell id="BS-xRKyWjwnMutiloFxV-136" value="회원가입" style="rounded=0;whiteSpace=wrap;html=1;" parent="3nuBFxr9cyL0pnOWT2aG-1" vertex="1">
          <mxGeometry x="40" y="70" width="20" height="140" as="geometry" />
        </mxCell>
        <mxCell id="3nuBFxr9cyL0pnOWT2aG-5" value="RegisterForm" style="shape=umlLifeline;perimeter=lifelinePerimeter;container=1;collapsible=0;recursiveResize=0;rounded=0;shadow=0;strokeWidth=1;" parent="1" vertex="1">
          <mxGeometry x="220" y="80" width="100" height="600" as="geometry" />
        </mxCell>
        <mxCell id="BS-xRKyWjwnMutiloFxV-17" value="" style="rounded=0;whiteSpace=wrap;html=1;" parent="3nuBFxr9cyL0pnOWT2aG-5" vertex="1">
          <mxGeometry x="40" y="60" width="20" height="60" as="geometry" />
        </mxCell>
        <mxCell id="3nuBFxr9cyL0pnOWT2aG-8" value="1.회원가입 요청" style="verticalAlign=bottom;endArrow=block;entryX=0;entryY=0;shadow=0;strokeWidth=1;" parent="1" edge="1">
          <mxGeometry relative="1" as="geometry">
            <mxPoint x="100" y="160" as="sourcePoint" />
            <mxPoint x="263" y="160.0000000000001" as="targetPoint" />
          </mxGeometry>
        </mxCell>
        <mxCell id="BS-xRKyWjwnMutiloFxV-3" value="User (DB)" style="shape=umlLifeline;perimeter=lifelinePerimeter;container=1;collapsible=0;recursiveResize=0;rounded=0;shadow=0;strokeWidth=1;" parent="1" vertex="1">
          <mxGeometry x="400" y="80" width="100" height="600" as="geometry" />
        </mxCell>
        <mxCell id="BS-xRKyWjwnMutiloFxV-129" value="" style="html=1;points=[];perimeter=orthogonalPerimeter;" parent="BS-xRKyWjwnMutiloFxV-3" vertex="1">
          <mxGeometry x="45" y="90" width="10" height="60" as="geometry" />
        </mxCell>
        <mxCell id="u28G30YTxyB6MNuOs4cs-16" value="" style="html=1;points=[];perimeter=orthogonalPerimeter;" vertex="1" parent="BS-xRKyWjwnMutiloFxV-3">
          <mxGeometry x="45" y="250" width="10" height="70" as="geometry" />
        </mxCell>
        <mxCell id="BS-xRKyWjwnMutiloFxV-18" value="2.가입정보 저장" style="verticalAlign=bottom;endArrow=block;entryX=0;entryY=0;shadow=0;strokeWidth=1;" parent="1" edge="1">
          <mxGeometry relative="1" as="geometry">
            <mxPoint x="280" y="180.0000000000001" as="sourcePoint" />
            <mxPoint x="450" y="180.0000000000001" as="targetPoint" />
          </mxGeometry>
        </mxCell>
        <mxCell id="BS-xRKyWjwnMutiloFxV-116" value="LoginView" style="shape=umlLifeline;perimeter=lifelinePerimeter;container=1;collapsible=0;recursiveResize=0;rounded=0;shadow=0;strokeWidth=1;" parent="1" vertex="1">
          <mxGeometry x="560" y="80" width="100" height="600" as="geometry" />
        </mxCell>
        <mxCell id="BS-xRKyWjwnMutiloFxV-119" value="" style="rounded=0;whiteSpace=wrap;html=1;" parent="BS-xRKyWjwnMutiloFxV-116" vertex="1">
          <mxGeometry x="40" y="100" width="20" height="80" as="geometry" />
        </mxCell>
        <mxCell id="BS-xRKyWjwnMutiloFxV-145" value="" style="rounded=0;whiteSpace=wrap;html=1;" parent="BS-xRKyWjwnMutiloFxV-116" vertex="1">
          <mxGeometry x="40" y="250" width="20" height="80" as="geometry" />
        </mxCell>
        <mxCell id="BS-xRKyWjwnMutiloFxV-130" value="2.회원 정보 검색" style="html=1;verticalAlign=bottom;endArrow=block;rounded=0;edgeStyle=orthogonalEdgeStyle;" parent="1" edge="1">
          <mxGeometry relative="1" as="geometry">
            <mxPoint x="600" y="349" as="sourcePoint" />
            <Array as="points">
              <mxPoint x="600" y="349" />
            </Array>
            <mxPoint x="450" y="349" as="targetPoint" />
          </mxGeometry>
        </mxCell>
        <mxCell id="BS-xRKyWjwnMutiloFxV-131" value="3.검색결과" style="html=1;verticalAlign=bottom;endArrow=open;dashed=1;endSize=8;rounded=0;edgeStyle=orthogonalEdgeStyle;" parent="1" edge="1">
          <mxGeometry relative="1" as="geometry">
            <mxPoint x="598" y="369.5" as="targetPoint" />
            <mxPoint x="450" y="369.5" as="sourcePoint" />
            <Array as="points">
              <mxPoint x="450" y="369.5" />
            </Array>
          </mxGeometry>
        </mxCell>
        <mxCell id="BS-xRKyWjwnMutiloFxV-140" value="4.로그인 결과" style="html=1;verticalAlign=bottom;endArrow=open;dashed=1;endSize=8;rounded=0;edgeStyle=orthogonalEdgeStyle;entryX=1;entryY=0.75;entryDx=0;entryDy=0;" parent="1" target="BS-xRKyWjwnMutiloFxV-144" edge="1">
          <mxGeometry relative="1" as="geometry">
            <mxPoint x="600" y="380" as="sourcePoint" />
            <mxPoint x="90" y="390" as="targetPoint" />
            <Array as="points">
              <mxPoint x="600" y="410" />
              <mxPoint x="130" y="410" />
              <mxPoint x="130" y="390" />
              <mxPoint x="110" y="390" />
              <mxPoint x="110" y="380" />
            </Array>
          </mxGeometry>
        </mxCell>
        <mxCell id="BS-xRKyWjwnMutiloFxV-142" value="" style="rounded=0;whiteSpace=wrap;html=1;" parent="1" vertex="1">
          <mxGeometry x="80" y="320" width="20" height="50" as="geometry" />
        </mxCell>
        <mxCell id="BS-xRKyWjwnMutiloFxV-144" value="로그인" style="rounded=0;whiteSpace=wrap;html=1;" parent="1" vertex="1">
          <mxGeometry x="80" y="320" width="20" height="80" as="geometry" />
        </mxCell>
        <mxCell id="BS-xRKyWjwnMutiloFxV-146" value="3.회원원가입 결과" style="html=1;verticalAlign=bottom;endArrow=open;dashed=1;endSize=8;rounded=0;edgeStyle=orthogonalEdgeStyle;" parent="1" edge="1">
          <mxGeometry relative="1" as="geometry">
            <mxPoint x="439" y="220" as="sourcePoint" />
            <mxPoint x="99" y="220" as="targetPoint" />
            <Array as="points">
              <mxPoint x="299" y="220" />
              <mxPoint x="299" y="220" />
            </Array>
          </mxGeometry>
        </mxCell>
        <mxCell id="BS-xRKyWjwnMutiloFxV-117" value="1.로그인 요청" style="verticalAlign=bottom;endArrow=block;shadow=0;strokeWidth=1;" parent="1" edge="1">
          <mxGeometry relative="1" as="geometry">
            <mxPoint x="100" y="330" as="sourcePoint" />
            <mxPoint x="600" y="330" as="targetPoint" />
          </mxGeometry>
        </mxCell>
      </root>
    </mxGraphModel>
  </diagram>
</mxfile>
